<svg width="84" height="176" viewBox="0 0 84 176" fill="none" xmlns="http://www.w3.org/2000/svg">
<path d="M41.993 74.9623C44.9777 74.9623 47.8954 74.1977 50.377 72.7652C52.8587 71.3327 54.793 69.2965 55.9352 66.9143C57.0774 64.5321 57.3762 61.9108 56.7939 59.3819C56.2116 56.8529 54.7744 54.5299 52.6639 52.7067C50.5534 50.8834 47.8644 49.6417 44.9371 49.1387C42.0097 48.6357 38.9754 48.8938 36.2179 49.8806C33.4604 50.8673 31.1036 52.5383 29.4453 54.6823C27.7871 56.8262 26.9021 59.3468 26.9021 61.9253C26.9021 65.3829 28.492 68.6989 31.3221 71.1439C34.1522 73.5888 37.9906 74.9623 41.993 74.9623ZM41.993 55.4067C43.4853 55.4067 44.9442 55.789 46.185 56.5053C47.4259 57.2216 48.393 58.2396 48.9641 59.4307C49.5352 60.6218 49.6846 61.9325 49.3934 63.197C49.1023 64.4614 48.3837 65.6229 47.3284 66.5346C46.2732 67.4462 44.9287 68.067 43.465 68.3185C42.0014 68.5701 40.4842 68.441 39.1055 67.9476C37.7267 67.4542 36.5483 66.6187 35.7192 65.5468C34.8901 64.4748 34.4475 63.2145 34.4475 61.9253C34.4475 60.1964 35.2425 58.5384 36.6575 57.316C38.0726 56.0935 39.9918 55.4067 41.993 55.4067Z" fill="#5B1CE1"/>
<path d="M1.31921 95.7403C0.783976 96.3185 0.49258 97.037 0.492981 97.7773V110.814C0.49258 111.555 0.783976 112.273 1.31921 112.851L4.26571 116.029V133.629H11.8112V124.177L16.4101 129.145C16.7634 129.527 17.2116 129.835 17.7217 130.047C18.2317 130.26 18.7905 130.37 19.3566 130.37C19.7816 130.369 20.2035 130.307 20.6054 130.188C21.3433 129.964 21.9826 129.548 22.4347 128.997C22.8869 128.445 23.1296 127.786 23.1293 127.111V114.074H30.6748V117.333C30.676 117.977 30.8964 118.606 31.3086 119.142L38.2203 128.089V136.889H45.7657V128.089L52.6773 119.132C53.0874 118.599 53.3078 117.973 53.3112 117.333V114.074H60.8566V127.111C60.8563 127.786 61.0991 128.445 61.5512 128.997C62.0034 129.548 62.6426 129.964 63.3806 130.188C63.7824 130.307 64.2043 130.369 64.6293 130.37C65.1951 130.37 65.7537 130.26 66.2638 130.049C66.7738 129.837 67.2222 129.529 67.5758 129.148L72.1748 124.177V133.629H79.7203V116.029L82.6667 112.848C83.2012 112.271 83.4925 111.554 83.493 110.814V97.7773C83.4934 97.037 83.202 96.3185 82.6667 95.7403L68.4021 80.337V78.7497L71.9786 69.4739C72.1076 69.1419 72.1739 68.7941 72.1748 68.4439V39.1105C72.189 34.5473 71.1557 30.0269 69.1346 25.811C67.1135 21.595 64.1447 17.7671 60.4001 14.5487L44.6603 0.95427C43.9528 0.343252 42.9934 0 41.993 0C40.9926 0 40.0332 0.343252 39.3257 0.95427L23.5858 14.5487C19.8412 17.7671 16.8725 21.595 14.8514 25.811C12.8303 30.0269 11.797 34.5473 11.8112 39.1105V68.4439C11.8121 68.7941 11.8783 69.1419 12.0073 69.4739L15.5839 78.7497V80.337L1.31921 95.7403ZM15.5839 110.814V117.819L8.03844 109.67V98.9148L15.5839 90.7667V110.814ZM68.4021 110.814V90.7732L75.9475 98.9214V109.677L68.4021 117.825V110.814ZM45.7657 116.355L41.993 121.244L38.2203 116.355V101.806L41.993 95.2873L45.7657 101.806V116.355ZM28.9205 19.1573L41.993 7.86718L55.0655 19.1573C60.286 23.6431 63.5832 29.5308 64.4143 35.8513H19.5717C20.4027 29.5308 23.6999 23.6431 28.9205 19.1573ZM19.3566 42.3698H64.6293V67.9159L61.0528 77.1918C60.9238 77.5238 60.8575 77.8716 60.8566 78.2217V107.555H53.3112V101.037C53.3176 100.532 53.1884 100.034 52.9339 99.5797L45.3884 86.5426C45.0398 86.0375 44.5454 85.6193 43.9535 85.3288C43.3616 85.0384 42.6926 84.8857 42.0118 84.8857C41.3311 84.8857 40.6621 85.0384 40.0702 85.3288C39.4783 85.6193 38.9839 86.0375 38.6353 86.5426L31.0898 99.5797C30.8222 100.031 30.6801 100.53 30.6748 101.037V107.555H23.1293V78.2217C23.1284 77.8716 23.0622 77.5238 22.9332 77.1918L19.3566 67.9159V42.3698Z" fill="#5B1CE1"/>
<path d="M30.6748 136.888H23.1293V143.407H30.6748V136.888Z" fill="#5B1CE1"/>
<path d="M30.6748 149.926H23.1293V156.444H30.6748V149.926Z" fill="#5B1CE1"/>
<path d="M45.7657 169.481H38.2202V175.999H45.7657V169.481Z" fill="#5B1CE1"/>
<path d="M60.8566 149.926H53.3112V156.444H60.8566V149.926Z" fill="#5B1CE1"/>
<path d="M60.8566 136.888H53.3112V143.407H60.8566V136.888Z" fill="#5B1CE1"/>
<path d="M45.7657 143.407H38.2202V149.926H45.7657V143.407Z" fill="#5B1CE1"/>
<path d="M45.7657 156.444H38.2202V162.963H45.7657V156.444Z" fill="#5B1CE1"/>
<path d="M79.7203 140.148H72.1748V146.666H79.7203V140.148Z" fill="#5B1CE1"/>
<path d="M11.8112 140.148H4.2657V146.666H11.8112V140.148Z" fill="#5B1CE1"/>
</svg>
